<?xml version="1.0" encoding="utf-8"?>
<!-- Generator: Adobe Illustrator 26.0.3, SVG Export Plug-In . SVG Version: 6.00 Build 0)  -->
<svg version="1.1" id="Camada_1" xmlns="http://www.w3.org/2000/svg" xmlns:xlink="http://www.w3.org/1999/xlink" x="0px" y="0px"
	 viewBox="0 0 1920 1080" style="enable-background:new 0 0 1920 1080;" xml:space="preserve">
<style type="text/css">
	.st0{fill:#009C2D;}
	.st1{fill:#FFE000;}
	.st2{fill:#002279;}
	.st3{fill:#FFFFFF;}
	.st4{fill:#FCFCFC;}
</style>
<rect x="0.2" class="st0" width="1920" height="1080"/>
<polygon class="st1" points="957.5,1024 174.6,541.2 959.7,56 1740.5,541.2 "/>
<path class="st2" d="M1292.1,540c0-176.8-148.8-320.2-332.3-320.2S627.5,363.2,627.5,540c0,176.8,148.8,320.2,332.3,320.2
	S1292.1,716.8,1292.1,540z"/>
<path class="st3" d="M1272.8,648.5c-265.7-256.7-628.3-209.3-628.3-209.3s17.4-44.6,21.5-48.3c0,0,354.6-47.4,620.3,209.3
	c0,0-10.2,39.4-12.9,46.5"/>
<path class="st0" d="M920.7,444.7l-0.7,2.5l-14.5-3.5l6-22.9l14.2,3.4l-0.7,2.5l-11.4-2.7l-1.9,7.3l9,2.2l-0.6,2.3l-9-2.2l-2.1,8.2
	L920.7,444.7z"/>
<path class="st0" d="M693.9,431.9c-3.9,0.2-7.1-1.3-9.6-4.5c-2.4-3.3-3.8-7.4-4.1-12.3c-0.3-5.2,0.5-9.5,2.6-13
	c2.1-3.5,5-5.4,8.8-5.6c3.8-0.2,6.9,1.2,9.5,4.4c2.5,3.2,3.9,7.3,4.3,12.3c0.3,4.8-0.5,9.1-2.5,12.8
	C700.9,429.6,697.9,431.6,693.9,431.9z M693.8,428.4c2.7-0.2,4.7-1.7,6-4.5c1.3-2.8,1.9-6.3,1.6-10.6c-0.3-4.4-1.3-7.8-3-10.1
	c-1.7-2.3-3.9-3.4-6.5-3.3c-2.6,0.2-4.6,1.6-6,4.4c-1.4,2.7-1.9,6.3-1.6,10.5c0.3,4.2,1.3,7.5,3,10
	C689,427.4,691.2,428.6,693.8,428.4z"/>
<path class="st0" d="M745.5,429.7l-4,0l-5.8-14.7l-8.8,0.1l0.2,14.8l-3.6,0l-0.4-34.1l12.1-0.1c3.3,0,5.7,1,7.3,2.9
	c1.6,2,2.4,4.2,2.4,6.5c0,1.8-0.4,3.6-1.3,5.2c-0.9,1.7-2.3,2.9-4.4,3.6L745.5,429.7z M726.8,411.6l8-0.1c2.1,0,3.7-0.7,4.7-1.9
	c1-1.3,1.5-2.8,1.5-4.6c0-1.8-0.6-3.2-1.7-4.2c-1.1-1-2.5-1.5-4.2-1.5l-8.5,0.1L726.8,411.6z"/>
<path class="st0" d="M762.7,430.1l1.4-34.1l10.3,0.5c4.3,0.2,7.6,2,9.9,5.4c2.3,3.4,3.3,7.4,3.1,12.2c-0.2,4.8-1.5,8.8-4,12
	c-2.5,3.2-5.5,4.7-9.2,4.6L762.7,430.1z M766.7,426.6l6.2,0.3c3.3,0.1,5.9-1,7.7-3.5c1.8-2.5,2.8-5.8,3-9.9c0.1-3.4-0.6-6.4-2.1-9.2
	c-1.5-2.7-4-4.2-7.5-4.3l-6.2-0.3L766.7,426.6z"/>
<path class="st0" d="M823.8,430.5l-0.3,3.7l-19.8-1.8l3-34l19.4,1.8l-0.3,3.7l-15.5-1.4l-1,10.8l12.3,1.1l-0.3,3.5l-12.3-1.1
	l-1.1,12.2L823.8,430.5z"/>
<path class="st0" d="M869.2,440.3l-3.7-0.5l4.2-29.5l-14.1,28l-2.6-0.4l-5.8-30.9l-4.2,29.5l-3.2-0.5l4.8-33.7l5.6,0.8l5.4,28.3
	l12.8-25.7l5.6,0.8L869.2,440.3z"/>
<path class="st0" d="M958.1,460.3l-3.7-1.1l9.5-32.7l10.5,3.1c3.3,1,5.4,2.6,6.4,5.1c1,2.4,1.1,4.9,0.4,7.4
	c-0.8,2.8-2.3,4.9-4.6,6.2c-2.2,1.3-4.7,1.6-7.4,0.8L962,447L958.1,460.3z M962.9,443.6l6.8,2c1.7,0.5,3.3,0.3,4.7-0.5
	c1.4-0.8,2.4-2.2,2.9-4.1c0.5-1.6,0.4-3.2-0.2-4.8c-0.6-1.6-1.8-2.6-3.6-3.1l-7.1-2.1L962.9,443.6z"/>
<path class="st0" d="M1010.7,477.2l-3.8-1.3l-0.6-15.8l-8.3-2.9l-4.8,13.9l-3.4-1.2l11-32.2l11.5,4c3.1,1.1,5.1,2.8,5.9,5.2
	c0.8,2.4,0.9,4.7,0.1,7c-0.6,1.7-1.6,3.2-2.9,4.5c-1.4,1.3-3.2,1.9-5.3,1.9L1010.7,477.2z M999.1,453.9l7.6,2.6
	c2,0.7,3.7,0.6,5.1-0.2c1.4-0.8,2.4-2.1,3-3.8c0.6-1.7,0.5-3.2-0.2-4.5c-0.7-1.3-1.9-2.2-3.5-2.8l-8-2.8L999.1,453.9z"/>
<path class="st0" d="M1036.4,487.9c-3.7-1.5-5.9-4.2-6.7-8.2c-0.8-4-0.2-8.3,1.6-12.9c1.9-4.8,4.6-8.3,8-10.6
	c3.4-2.3,6.9-2.7,10.4-1.2c3.5,1.4,5.7,4.1,6.6,8c0.9,3.9,0.4,8.2-1.5,12.9c-1.8,4.5-4.4,8-7.8,10.5
	C1043.7,488.9,1040.1,489.4,1036.4,487.9z M1037.7,484.7c2.5,1,5,0.5,7.4-1.4c2.4-1.9,4.4-4.9,6-8.9c1.6-4.1,2.2-7.5,1.6-10.4
	c-0.5-2.8-2-4.8-4.4-5.7c-2.4-1-4.9-0.5-7.3,1.3c-2.4,1.9-4.4,4.8-6,8.8c-1.6,3.9-2.1,7.3-1.6,10.4
	C1033.9,481.7,1035.3,483.7,1037.7,484.7z"/>
<path class="st0" d="M1091.8,492.9l-7.4,16l-2.1-1l0.8-4.3c-3,1.9-6.2,2.1-9.6,0.5c-3.7-1.7-5.8-4.6-6.4-8.6
	c-0.6-4,0.1-8.2,2.1-12.6c2.2-4.7,5.1-8.1,8.7-10.2c3.6-2.1,7.3-2.3,11-0.6c5.1,2.4,7.1,6.9,5.9,13.7l-3.7-0.7
	c0.6-2.5,0.5-4.6-0.3-6.3c-0.8-1.7-2-2.8-3.6-3.6c-2.8-1.3-5.4-1-7.8,0.8c-2.5,1.8-4.6,4.6-6.3,8.3c-1.9,4-2.6,7.5-2.2,10.4
	c0.4,2.9,1.9,5,4.4,6.2c2,0.9,3.9,1,5.9,0.1c2-0.8,3.6-2.5,4.8-5c0.2-0.5,0.5-1,0.7-1.7l-6.9-3.2l1.5-3.2L1091.8,492.9z"/>
<path class="st0" d="M1120.4,527.1l-3.6-1.9l1.9-15.7l-7.8-4.2l-6.9,13l-3.2-1.7l16-30.1l10.7,5.7c2.9,1.6,4.6,3.6,5,6.1
	c0.5,2.5,0.1,4.8-1,6.9c-0.8,1.6-2.1,2.9-3.6,4c-1.6,1-3.4,1.4-5.6,1.1L1120.4,527.1z M1112.6,502.3l7.1,3.8c1.9,1,3.6,1.2,5.1,0.6
	c1.5-0.6,2.7-1.7,3.5-3.3c0.8-1.6,1-3.1,0.5-4.5c-0.5-1.4-1.5-2.5-3-3.3l-7.5-4L1112.6,502.3z"/>
<path class="st0" d="M1154.4,542.7l-1.9,3.2l-17.1-10.2l17.5-29.2l16.7,10l-1.9,3.2l-13.4-8l-5.6,9.3l10.6,6.4l-1.8,3l-10.6-6.4
	l-6.3,10.5L1154.4,542.7z"/>
<path class="st0" d="M1168.6,545.4l3.4,1.2c-1.4,4.6-0.2,8.2,3.7,10.8c2,1.4,3.9,1.9,5.5,1.6c1.7-0.3,3-1.2,4.1-2.8
	c0.8-1.2,1.1-2.4,0.8-3.7c-0.3-1.3-0.9-2.4-1.7-3.3l-4.2-4.8c-1.1-1.3-1.9-2.4-2.4-3.5c-0.5-1.1-0.7-2.4-0.5-3.9
	c0.1-1.5,0.7-3,1.7-4.4c1.6-2.4,3.6-3.7,6.2-4.1c2.5-0.3,5.1,0.4,7.6,2c4.7,3.1,6.2,7.5,4.5,13.1l-3.5-1c0.8-1.9,0.8-3.7,0.1-5.4
	c-0.7-1.7-1.7-3-3.1-3.9c-1.4-0.9-2.9-1.4-4.6-1.3c-1.6,0.1-3,0.9-4,2.4c-1.4,2.1-1,4.4,1.3,7l4,4.4c3.6,4.1,4.1,8.2,1.4,12.2
	c-1.6,2.5-3.8,3.9-6.5,4.5c-2.7,0.5-5.6-0.2-8.6-2.2C1168.4,557,1166.7,551.9,1168.6,545.4z"/>
<path class="st0" d="M1199.9,566.7l3.3,1.4c-1.6,4.6-0.6,8.2,3.2,11c2,1.4,3.8,2.1,5.4,1.9c1.7-0.2,3.1-1.1,4.2-2.6
	c0.9-1.2,1.2-2.4,0.9-3.7c-0.2-1.3-0.7-2.4-1.5-3.4l-3.9-5c-1-1.3-1.7-2.5-2.2-3.6c-0.4-1.1-0.5-2.4-0.3-3.9
	c0.2-1.5,0.8-2.9,1.9-4.3c1.7-2.3,3.8-3.5,6.4-3.7c2.6-0.2,5.1,0.6,7.5,2.4c4.5,3.3,5.8,7.8,3.9,13.3l-3.5-1.2
	c0.9-1.8,1-3.6,0.4-5.3c-0.6-1.7-1.6-3.1-3-4.1c-1.4-1-2.8-1.5-4.5-1.5c-1.6,0-3,0.7-4.1,2.2c-1.5,2-1.2,4.4,1,7.1l3.7,4.6
	c3.4,4.2,3.7,8.3,0.8,12.3c-1.7,2.4-4,3.8-6.7,4.1c-2.7,0.4-5.6-0.5-8.5-2.6C1199.1,578.2,1197.7,573.1,1199.9,566.7z"/>
<path class="st0" d="M1234.8,605.8c-3.1-2.5-4.4-5.8-3.9-9.8c0.5-4,2.2-8,5.4-11.8c3.3-4,6.9-6.5,10.8-7.7c3.9-1.1,7.4-0.5,10.3,1.9
	c2.9,2.4,4.3,5.6,3.9,9.6c-0.3,4-2.1,8-5.2,11.9c-3.1,3.7-6.6,6.3-10.6,7.6C1241.5,609,1237.9,608.4,1234.8,605.8z M1237.1,603.2
	c2.1,1.7,4.6,2,7.5,0.9c2.9-1.1,5.7-3.4,8.4-6.7c2.8-3.4,4.3-6.5,4.7-9.4c0.3-2.9-0.5-5.2-2.5-6.8c-2-1.7-4.5-2-7.4-0.9
	c-2.9,1.1-5.7,3.3-8.4,6.6c-2.6,3.2-4.2,6.4-4.6,9.4C1234.3,599.2,1235.1,601.5,1237.1,603.2z"/>
<polygon class="st4" points="718.4,533.7 721.4,542.5 731,542.6 723.3,548.1 726.2,556.9 718.4,551.5 710.6,556.9 713.4,548.1 
	705.8,542.6 715.3,542.5 "/>
<polygon class="st4" points="681,449.3 684,458.1 693.6,458.2 685.9,463.7 688.8,472.5 681,467.1 673.2,472.5 676,463.7 
	668.4,458.2 677.9,458.1 "/>
<polygon class="st4" points="960.2,502.3 963.1,510.5 972.1,510.6 964.9,515.9 967.6,524.2 960.2,519.1 952.8,524.2 955.5,515.9 
	948.2,510.6 957.3,510.5 "/>
<polygon class="st4" points="965.5,600.2 968.5,608.9 978.1,609 970.4,614.5 973.3,623.3 965.5,618 957.7,623.3 960.5,614.5 
	952.8,609 962.4,608.9 "/>
<polygon class="st4" points="1193.1,570.9 1196.2,579.6 1205.7,579.7 1198.1,585.2 1200.9,594 1193.1,588.7 1185.3,594 
	1188.2,585.2 1180.5,579.7 1190.1,579.6 "/>
<polygon class="st4" points="997.3,534.9 1000.2,543.2 1009.3,543.3 1002,548.5 1004.7,556.9 997.3,551.8 989.9,556.9 992.6,548.5 
	985.3,543.3 994.4,543.2 "/>
<polygon class="st4" points="836.2,629.5 839.1,637.7 848.2,637.8 840.9,643.1 843.6,651.4 836.2,646.3 828.8,651.4 831.5,643.1 
	824.3,637.8 833.3,637.7 "/>
<polygon class="st4" points="1060.2,687 1063.1,695.3 1072.2,695.4 1064.9,700.6 1067.6,708.9 1060.2,703.9 1052.9,708.9 
	1055.5,700.6 1048.3,695.4 1057.3,695.3 "/>
<polygon class="st4" points="1063.6,358.8 1066.5,367.1 1075.6,367.2 1068.3,372.4 1071,380.7 1063.6,375.7 1056.2,380.7 
	1058.9,372.4 1051.7,367.2 1060.7,367.1 "/>
<polygon class="st4" points="1131.8,665.1 1134.7,673.3 1143.8,673.4 1136.5,678.6 1139.2,687 1131.8,681.9 1124.4,687 
	1127.1,678.6 1119.8,673.4 1128.9,673.3 "/>
<polygon class="st4" points="1197.8,599.7 1200.5,607.4 1208.9,607.4 1202.2,612.3 1204.7,620 1197.8,615.3 1191,620 1193.5,612.3 
	1186.7,607.4 1195.1,607.4 "/>
<polygon class="st4" points="1185.4,622.3 1188,629.9 1196.4,630 1189.7,634.9 1192.2,642.6 1185.4,637.9 1178.5,642.6 1181,634.9 
	1174.3,630 1182.7,629.9 "/>
<polygon class="st4" points="782.6,565.6 785.3,573.3 793.7,573.4 787,578.2 789.5,585.9 782.6,581.2 775.8,585.9 778.3,578.2 
	771.6,573.4 780,573.3 "/>
<polygon class="st4" points="771.6,600.2 774.2,607.9 782.6,608 775.9,612.8 778.4,620.5 771.6,615.8 764.7,620.5 767.2,612.8 
	760.5,608 768.9,607.9 "/>
<polygon class="st4" points="1083.9,634.2 1086.1,640.5 1093,640.6 1087.4,644.6 1089.5,651 1083.9,647.1 1078.2,651 1080.3,644.6 
	1074.7,640.6 1081.6,640.5 "/>
<polygon class="st4" points="1159.9,634.2 1162.2,640.5 1169.1,640.6 1163.5,644.6 1165.6,651 1159.9,647.1 1154.3,651 
	1156.4,644.6 1150.8,640.6 1157.7,640.5 "/>
<polygon class="st4" points="1132.8,634.2 1135,640.5 1142,640.6 1136.4,644.6 1138.5,651 1132.8,647.1 1127.2,651 1129.2,644.6 
	1123.7,640.6 1130.6,640.5 "/>
<polygon class="st4" points="1132.7,696 1134.9,702.3 1141.8,702.4 1136.3,706.4 1138.4,712.7 1132.7,708.9 1127.1,712.7 
	1129.1,706.4 1123.6,702.4 1130.5,702.3 "/>
<polygon class="st4" points="929.3,538.8 931.5,545.2 938.5,545.2 932.9,549.2 935,555.6 929.3,551.7 923.7,555.6 925.7,549.2 
	920.2,545.2 927.1,545.2 "/>
<polygon class="st4" points="837.5,473.9 839.7,480.3 846.6,480.3 841,484.3 843.1,490.7 837.5,486.8 831.8,490.7 833.9,484.3 
	828.3,480.3 835.2,480.3 "/>
<polygon class="st4" points="1236.3,570.9 1238.4,576.7 1244.7,576.7 1239.6,580.4 1241.5,586.2 1236.3,582.7 1231.2,586.2 
	1233.1,580.4 1228,576.7 1234.3,576.7 "/>
<polygon class="st4" points="1048.3,449 1050.3,454.7 1056.6,454.8 1051.6,458.5 1053.4,464.3 1048.3,460.8 1043.1,464.3 
	1045,458.5 1039.9,454.8 1046.3,454.7 "/>
<polygon class="st4" points="1035.2,634.9 1037.2,640.7 1043.5,640.8 1038.5,644.4 1040.3,650.2 1035.2,646.7 1030,650.2 
	1031.9,644.4 1026.8,640.8 1033.2,640.7 "/>
<polygon class="st4" points="673,568.1 675,573.9 681.3,574 676.2,577.6 678.1,583.4 673,579.9 667.8,583.4 669.7,577.6 664.6,574 
	670.9,573.9 "/>
<polygon class="st4" points="954.2,570.3 955.6,574.4 960.1,574.5 956.5,577.1 957.8,581.2 954.2,578.7 950.5,581.2 951.8,577.1 
	948.2,574.5 952.7,574.4 "/>
<polygon class="st4" points="751.8,524.8 753.3,528.9 757.8,529 754.2,531.6 755.5,535.7 751.8,533.2 748.2,535.7 749.5,531.6 
	745.9,529 750.4,528.9 "/>
<polygon class="st4" points="963.5,710.3 964.9,714.4 969.4,714.5 965.8,717.1 967.2,721.2 963.5,718.7 959.8,721.2 961.2,717.1 
	957.5,714.5 962.1,714.4 "/>
</svg>
